<?xml version="1.0" encoding="UTF-8"?>
<!DOCTYPE svg PUBLIC "-//W3C//DTD SVG 1.1//EN" "http://www.w3.org/Graphics/SVG/1.1/DTD/svg11.dtd">
<!-- Creator: CorelDRAW -->
<svg xmlns="http://www.w3.org/2000/svg" xml:space="preserve" width="0.933331in" height="0.266661in" version="1.1" style="shape-rendering:geometricPrecision; text-rendering:geometricPrecision; image-rendering:optimizeQuality; fill-rule:evenodd; clip-rule:evenodd"
viewBox="0 0 933.33 266.66"
 xmlns:xlink="http://www.w3.org/1999/xlink"
 xmlns:xodm="http://www.corel.com/coreldraw/odm/2003">
 <defs>
  <style type="text/css">
   <![CDATA[
    .fil0 {fill:#FEFEFE}
    .fil2 {fill:#FEFEFE;fill-rule:nonzero}
    .fil1 {fill:#373435;fill-rule:nonzero}
   ]]>
  </style>
 </defs>
 <g id="Layer_x0020_1">
  <metadata id="CorelCorpID_0Corel-Layer"/>
  <rect class="fil0" x="3.31" y="50" width="449.04" height="166.67"/>
  <polygon class="fil1" points="23.96,83.52 46.37,83.52 76.34,156.71 77.52,156.71 107.52,83.52 129.91,83.52 129.91,184.54 112.36,184.54 112.36,115.14 111.41,115.14 83.5,184.24 70.37,184.24 42.45,115 41.53,115 41.53,184.54 23.96,184.54 "/>
  <path id="_1" class="fil1" d="M213.52 83.52l18.31 0 0 66c0,7.24 -1.71,13.61 -5.11,19.1 -3.41,5.48 -8.17,9.77 -14.33,12.85 -6.16,3.08 -13.33,4.61 -21.55,4.61 -8.26,0 -15.46,-1.53 -21.6,-4.61 -6.16,-3.08 -10.93,-7.36 -14.3,-12.85 -3.38,-5.49 -5.09,-11.85 -5.09,-19.1l0 -66 18.31 0 0 64.47c0,4.21 0.93,7.96 2.78,11.25 1.87,3.28 4.49,5.85 7.87,7.7 3.38,1.88 7.41,2.8 12.04,2.8 4.63,0 8.66,-0.93 12.06,-2.8 3.41,-1.85 6.02,-4.42 7.87,-7.7 1.83,-3.29 2.75,-7.04 2.75,-11.25l0 -64.47z"/>
  <path id="_2" class="fil1" d="M306.65 111.3c-0.46,-4.31 -2.39,-7.66 -5.81,-10.07 -3.4,-2.39 -7.8,-3.59 -13.24,-3.59 -3.8,0 -7.08,0.58 -9.81,1.71 -2.71,1.16 -4.81,2.71 -6.25,4.7 -1.46,1.97 -2.2,4.21 -2.22,6.76 0,2.11 0.48,3.91 1.46,5.46 0.97,1.55 2.29,2.85 3.96,3.93 1.69,1.07 3.54,1.94 5.58,2.69 2.04,0.72 4.09,1.32 6.16,1.81l9.47 2.39c3.82,0.88 7.5,2.08 11.04,3.59 3.52,1.53 6.69,3.43 9.52,5.72 2.8,2.31 5.04,5.09 6.69,8.36 1.64,3.24 2.45,7.06 2.45,11.43 0,5.93 -1.5,11.11 -4.54,15.6 -3.03,4.49 -7.39,7.99 -13.1,10.51 -5.7,2.52 -12.59,3.77 -20.67,3.77 -7.87,0 -14.67,-1.23 -20.46,-3.66 -5.76,-2.43 -10.26,-5.97 -13.5,-10.65 -3.24,-4.67 -5,-10.35 -5.26,-17.06l17.99 0c0.28,3.52 1.37,6.44 3.26,8.78 1.9,2.33 4.4,4.07 7.48,5.23 3.08,1.16 6.5,1.74 10.32,1.74 3.98,0 7.48,-0.6 10.49,-1.8 3.01,-1.2 5.37,-2.87 7.08,-5.02 1.71,-2.18 2.57,-4.7 2.61,-7.59 -0.05,-2.61 -0.81,-4.79 -2.31,-6.53 -1.53,-1.71 -3.63,-3.17 -6.34,-4.33 -2.71,-1.18 -5.88,-2.22 -9.49,-3.15l-11.51 -2.94c-8.31,-2.15 -14.88,-5.39 -19.7,-9.74 -4.81,-4.37 -7.22,-10.16 -7.22,-17.39 0,-5.95 1.62,-11.18 4.86,-15.65 3.24,-4.47 7.64,-7.94 13.24,-10.42 5.58,-2.5 11.92,-3.73 18.98,-3.73 7.17,0 13.45,1.23 18.86,3.73 5.42,2.48 9.65,5.9 12.76,10.3 3.08,4.4 4.68,9.42 4.79,15.12l-17.61 0z"/>
  <path id="_3" class="fil1" d="M353.31 184.54l-19.54 0 35.56 -101.02 22.59 0 35.6 101.02 -19.52 0 -26.99 -80.3 -0.79 0 -26.92 80.3zm0.63 -39.61l53.28 0 0 14.7 -53.28 0 0 -14.7z"/>
  <polygon id="_4" class="fil2" points="475.3,184.54 475.3,83.52 493.57,83.52 493.61,169.19 538.11,169.19 538.11,184.54 "/>
  <path id="_5" class="fil2" d="M570.7 184.54l-19.54 0 35.56 -101.02 22.59 0 35.6 101.02 -19.52 0 -26.99 -80.3 -0.79 0 -26.92 80.3zm0.63 -39.61l53.28 0 0 14.7 -53.28 0 0 -14.7z"/>
  <path id="_6" class="fil2" d="M658.22 184.54l0 -101.02 38.68 0c7.29,0 13.38,1.16 18.22,3.43 4.86,2.29 8.5,5.42 10.91,9.35 2.41,3.96 3.63,8.43 3.63,13.43 0,4.1 -0.79,7.61 -2.39,10.53 -1.57,2.89 -3.68,5.26 -6.37,7.06 -2.66,1.83 -5.62,3.13 -8.91,3.91l0 0.97c3.59,0.21 7.01,1.3 10.32,3.29 3.31,1.99 6.02,4.79 8.13,8.4 2.11,3.63 3.15,7.99 3.15,13.13 0,5.23 -1.27,9.93 -3.8,14.07 -2.52,4.17 -6.34,7.45 -11.43,9.84 -5.09,2.41 -11.51,3.61 -19.24,3.61l-40.91 0zm18.31 -15.3l19.68 0c6.64,0 11.43,-1.28 14.37,-3.82 2.94,-2.54 4.42,-5.81 4.42,-9.83 0,-2.99 -0.74,-5.7 -2.22,-8.1 -1.48,-2.43 -3.59,-4.33 -6.32,-5.72 -2.73,-1.41 -5.97,-2.11 -9.77,-2.11l-20.16 0 0 29.59zm0 -42.76l18.1 0c3.15,0 6,-0.58 8.52,-1.74 2.54,-1.18 4.54,-2.85 6,-5 1.48,-2.15 2.2,-4.7 2.2,-7.66 0,-3.91 -1.37,-7.13 -4.12,-9.68 -2.73,-2.52 -6.81,-3.8 -12.2,-3.8l-18.5 0 0 27.87z"/>
  <polygon id="_7" class="fil2" points="749.52,184.54 749.52,83.52 815.17,83.52 815.22,98.86 767.78,98.86 767.83,126.3 811.77,126.34 811.81,141.62 767.78,141.62 767.83,169.19 815.56,169.19 815.63,184.54 "/>
  <polygon id="_8" class="fil2" points="833.92,184.54 833.92,83.52 852.18,83.52 852.23,169.19 896.72,169.19 896.72,184.54 "/>
 </g>
</svg>
